<svg width="420" height="67" viewBox="0 0 420 67" fill="none" xmlns="http://www.w3.org/2000/svg">
<path d="M37.5278 24.07C33.8978 22.0167 30.1212 20.77 26.1978 20.33V53H19.0478V20.33C15.0878 20.77 11.2928 22.0167 7.66285 24.07L5.18785 18.57C7.75451 17.03 10.5045 15.875 13.4378 15.105C16.4078 14.335 19.4512 13.95 22.5678 13.95C25.6845 13.95 28.7278 14.335 31.6978 15.105C34.6678 15.875 37.4362 17.03 40.0029 18.57L37.5278 24.07ZM62.0308 13.95C65.4774 13.95 68.4841 14.6283 71.0508 15.985C73.6174 17.3417 75.5974 19.3583 76.9908 22.035C78.4208 24.675 79.1358 27.8833 79.1358 31.66V53H71.9858V43.1H51.9658V53H44.9258V31.66C44.9258 27.8833 45.6224 24.675 47.0158 22.035C48.4458 19.3583 50.4441 17.3417 53.0108 15.985C55.5774 14.6283 58.5841 13.95 62.0308 13.95ZM71.9858 37.105V31C71.9858 27.4433 71.1058 24.7667 69.3458 22.97C67.5858 21.1367 65.1291 20.22 61.9758 20.22C58.8224 20.22 56.3658 21.1367 54.6058 22.97C52.8458 24.7667 51.9658 27.4433 51.9658 31V37.105H71.9858ZM104.813 14.17C110.019 14.17 114.089 15.49 117.023 18.13C119.956 20.7333 121.423 24.3633 121.423 29.02C121.423 33.4933 120.084 37.0133 117.408 39.58C114.731 42.11 111.028 43.375 106.298 43.375C104.464 43.375 102.704 43.1733 101.018 42.77C99.3309 42.3667 97.4976 41.6883 95.5176 40.735V53H88.4776V29.955C88.4776 24.895 89.8893 21.0083 92.7126 18.295C95.5359 15.545 99.5693 14.17 104.813 14.17ZM105.033 37.765C107.929 37.765 110.184 37.0133 111.798 35.51C113.448 34.0067 114.273 31.8983 114.273 29.185C114.273 26.435 113.448 24.29 111.798 22.75C110.148 21.1733 107.874 20.385 104.978 20.385C102.008 20.385 99.6793 21.21 97.9926 22.86C96.3426 24.51 95.5176 26.8383 95.5176 29.845V34.52C96.8376 35.5833 98.3043 36.39 99.9176 36.94C101.568 37.49 103.273 37.765 105.033 37.765ZM161.46 14.5V53H154.585V48.105C151.982 51.735 147.949 53.55 142.485 53.55C137.939 53.55 134.364 52.1383 131.76 49.315C129.157 46.455 127.855 42.4217 127.855 37.215V14.5H135.005V36.94C135.005 40.35 135.812 42.935 137.425 44.695C139.075 46.4183 141.33 47.28 144.19 47.28C147.27 47.28 149.727 46.3633 151.56 44.53C153.394 42.66 154.31 39.8917 154.31 36.225V14.5H161.46Z" fill="white"/>
<path d="M180.199 29.14C178.743 29.14 177.437 28.8227 176.279 28.188C175.141 27.5533 174.245 26.6667 173.591 25.528C172.938 24.3707 172.611 23.0733 172.611 21.636C172.611 20.1987 172.938 18.9107 173.591 17.772C174.245 16.6333 175.141 15.7467 176.279 15.112C177.437 14.4773 178.743 14.16 180.199 14.16C181.469 14.16 182.598 14.412 183.587 14.916C184.595 15.4013 185.389 16.12 185.967 17.072L184.483 18.08C183.998 17.352 183.382 16.8107 182.635 16.456C181.889 16.0827 181.077 15.896 180.199 15.896C179.135 15.896 178.174 16.1387 177.315 16.624C176.475 17.0907 175.813 17.7627 175.327 18.64C174.861 19.5173 174.627 20.516 174.627 21.636C174.627 22.7747 174.861 23.7827 175.327 24.66C175.813 25.5187 176.475 26.1907 177.315 26.676C178.174 27.1427 179.135 27.376 180.199 27.376C181.077 27.376 181.889 27.1987 182.635 26.844C183.382 26.4893 183.998 25.948 184.483 25.22L185.967 26.228C185.389 27.18 184.595 27.908 183.587 28.412C182.579 28.8973 181.45 29.14 180.199 29.14ZM208.185 14.16C210.033 14.16 211.479 14.692 212.525 15.756C213.589 16.82 214.121 18.388 214.121 20.46V29H212.133V20.656C212.133 19.1253 211.759 17.9587 211.013 17.156C210.285 16.3533 209.249 15.952 207.905 15.952C206.374 15.952 205.17 16.428 204.293 17.38C203.415 18.3133 202.977 19.6107 202.977 21.272V29H200.989V20.656C200.989 19.1253 200.615 17.9587 199.869 17.156C199.141 16.3533 198.095 15.952 196.733 15.952C195.221 15.952 194.017 16.428 193.121 17.38C192.243 18.3133 191.805 19.6107 191.805 21.272V29H189.817V14.272H191.721V16.96C192.243 16.064 192.971 15.3733 193.905 14.888C194.838 14.4027 195.911 14.16 197.125 14.16C198.357 14.16 199.421 14.4213 200.317 14.944C201.231 15.4667 201.913 16.2413 202.361 17.268C202.902 16.2973 203.677 15.5413 204.685 15C205.711 14.44 206.878 14.16 208.185 14.16ZM225.397 29.14C223.978 29.14 222.699 28.8227 221.561 28.188C220.422 27.5347 219.526 26.6387 218.873 25.5C218.219 24.3613 217.893 23.0733 217.893 21.636C217.893 20.1987 218.219 18.9107 218.873 17.772C219.526 16.6333 220.422 15.7467 221.561 15.112C222.699 14.4773 223.978 14.16 225.397 14.16C226.815 14.16 228.094 14.4773 229.233 15.112C230.371 15.7467 231.258 16.6333 231.893 17.772C232.546 18.9107 232.873 20.1987 232.873 21.636C232.873 23.0733 232.546 24.3613 231.893 25.5C231.258 26.6387 230.371 27.5347 229.233 28.188C228.094 28.8227 226.815 29.14 225.397 29.14ZM225.397 27.376C226.442 27.376 227.375 27.1427 228.197 26.676C229.037 26.1907 229.69 25.5093 230.157 24.632C230.623 23.7547 230.857 22.756 230.857 21.636C230.857 20.516 230.623 19.5173 230.157 18.64C229.69 17.7627 229.037 17.0907 228.197 16.624C227.375 16.1387 226.442 15.896 225.397 15.896C224.351 15.896 223.409 16.1387 222.569 16.624C221.747 17.0907 221.094 17.7627 220.609 18.64C220.142 19.5173 219.909 20.516 219.909 21.636C219.909 22.756 220.142 23.7547 220.609 24.632C221.094 25.5093 221.747 26.1907 222.569 26.676C223.409 27.1427 224.351 27.376 225.397 27.376ZM253.585 14.272V29H251.765V17.352L245.801 27.208H244.905L238.941 17.324V29H237.121V14.272H239.137L245.381 24.884L251.737 14.272H253.585ZM272.627 14.272V29H270.723V26.088C270.125 27.0773 269.332 27.8333 268.343 28.356C267.372 28.8787 266.271 29.14 265.039 29.14C263.657 29.14 262.407 28.8227 261.287 28.188C260.167 27.5533 259.289 26.6667 258.655 25.528C258.02 24.3893 257.703 23.092 257.703 21.636C257.703 20.18 258.02 18.8827 258.655 17.744C259.289 16.6053 260.167 15.728 261.287 15.112C262.407 14.4773 263.657 14.16 265.039 14.16C266.233 14.16 267.307 14.412 268.259 14.916C269.229 15.4013 270.023 16.12 270.639 17.072V14.272H272.627ZM265.207 27.376C266.233 27.376 267.157 27.1427 267.979 26.676C268.819 26.1907 269.472 25.5093 269.939 24.632C270.424 23.7547 270.667 22.756 270.667 21.636C270.667 20.516 270.424 19.5173 269.939 18.64C269.472 17.7627 268.819 17.0907 267.979 16.624C267.157 16.1387 266.233 15.896 265.207 15.896C264.161 15.896 263.219 16.1387 262.379 16.624C261.557 17.0907 260.904 17.7627 260.419 18.64C259.952 19.5173 259.719 20.516 259.719 21.636C259.719 22.756 259.952 23.7547 260.419 24.632C260.904 25.5093 261.557 26.1907 262.379 26.676C263.219 27.1427 264.161 27.376 265.207 27.376ZM296.587 14.16C298.435 14.16 299.882 14.692 300.927 15.756C301.991 16.82 302.523 18.388 302.523 20.46V29H300.535V20.656C300.535 19.1253 300.162 17.9587 299.415 17.156C298.687 16.3533 297.651 15.952 296.307 15.952C294.776 15.952 293.572 16.428 292.695 17.38C291.818 18.3133 291.379 19.6107 291.379 21.272V29H289.391V20.656C289.391 19.1253 289.018 17.9587 288.271 17.156C287.543 16.3533 286.498 15.952 285.135 15.952C283.623 15.952 282.419 16.428 281.523 17.38C280.646 18.3133 280.207 19.6107 280.207 21.272V29H278.219V14.272H280.123V16.96C280.646 16.064 281.374 15.3733 282.307 14.888C283.24 14.4027 284.314 14.16 285.527 14.16C286.759 14.16 287.823 14.4213 288.719 14.944C289.634 15.4667 290.315 16.2413 290.763 17.268C291.304 16.2973 292.079 15.5413 293.087 15C294.114 14.44 295.28 14.16 296.587 14.16ZM313.799 29.14C312.38 29.14 311.102 28.8227 309.963 28.188C308.824 27.5347 307.928 26.6387 307.275 25.5C306.622 24.3613 306.295 23.0733 306.295 21.636C306.295 20.1987 306.622 18.9107 307.275 17.772C307.928 16.6333 308.824 15.7467 309.963 15.112C311.102 14.4773 312.38 14.16 313.799 14.16C315.218 14.16 316.496 14.4773 317.635 15.112C318.774 15.7467 319.66 16.6333 320.295 17.772C320.948 18.9107 321.275 20.1987 321.275 21.636C321.275 23.0733 320.948 24.3613 320.295 25.5C319.66 26.6387 318.774 27.5347 317.635 28.188C316.496 28.8227 315.218 29.14 313.799 29.14ZM313.799 27.376C314.844 27.376 315.778 27.1427 316.599 26.676C317.439 26.1907 318.092 25.5093 318.559 24.632C319.026 23.7547 319.259 22.756 319.259 21.636C319.259 20.516 319.026 19.5173 318.559 18.64C318.092 17.7627 317.439 17.0907 316.599 16.624C315.778 16.1387 314.844 15.896 313.799 15.896C312.754 15.896 311.811 16.1387 310.971 16.624C310.15 17.0907 309.496 17.7627 309.011 18.64C308.544 19.5173 308.311 20.516 308.311 21.636C308.311 22.756 308.544 23.7547 309.011 24.632C309.496 25.5093 310.15 26.1907 310.971 26.676C311.811 27.1427 312.754 27.376 313.799 27.376ZM337.482 14.272V29H335.494V16.036H328.438L328.242 19.676C328.092 22.7373 327.738 25.0893 327.178 26.732C326.618 28.3747 325.619 29.196 324.182 29.196C323.79 29.196 323.314 29.1213 322.754 28.972L322.894 27.264C323.23 27.3387 323.463 27.376 323.594 27.376C324.359 27.376 324.938 27.0213 325.33 26.312C325.722 25.6027 325.983 24.7253 326.114 23.68C326.244 22.6347 326.356 21.2533 326.45 19.536L326.702 14.272H337.482ZM349.209 29.14C347.791 29.14 346.512 28.8227 345.373 28.188C344.235 27.5347 343.339 26.6387 342.685 25.5C342.032 24.3613 341.705 23.0733 341.705 21.636C341.705 20.1987 342.032 18.9107 342.685 17.772C343.339 16.6333 344.235 15.7467 345.373 15.112C346.512 14.4773 347.791 14.16 349.209 14.16C350.628 14.16 351.907 14.4773 353.045 15.112C354.184 15.7467 355.071 16.6333 355.705 17.772C356.359 18.9107 356.685 20.1987 356.685 21.636C356.685 23.0733 356.359 24.3613 355.705 25.5C355.071 26.6387 354.184 27.5347 353.045 28.188C351.907 28.8227 350.628 29.14 349.209 29.14ZM349.209 27.376C350.255 27.376 351.188 27.1427 352.009 26.676C352.849 26.1907 353.503 25.5093 353.969 24.632C354.436 23.7547 354.669 22.756 354.669 21.636C354.669 20.516 354.436 19.5173 353.969 18.64C353.503 17.7627 352.849 17.0907 352.009 16.624C351.188 16.1387 350.255 15.896 349.209 15.896C348.164 15.896 347.221 16.1387 346.381 16.624C345.56 17.0907 344.907 17.7627 344.421 18.64C343.955 19.5173 343.721 20.516 343.721 21.636C343.721 22.756 343.955 23.7547 344.421 24.632C344.907 25.5093 345.56 26.1907 346.381 26.676C347.221 27.1427 348.164 27.376 349.209 27.376ZM371.35 16.036H362.922V29H360.934V14.272H371.35V16.036ZM387.187 14.272V29H385.283V26.312C384.76 27.208 384.042 27.908 383.127 28.412C382.212 28.8973 381.167 29.14 379.991 29.14C378.05 29.14 376.519 28.608 375.399 27.544C374.298 26.4613 373.747 24.884 373.747 22.812V14.272H375.735V22.616C375.735 24.1653 376.118 25.3413 376.883 26.144C377.648 26.9467 378.75 27.348 380.187 27.348C381.736 27.348 382.959 26.8813 383.855 25.948C384.751 24.996 385.199 23.68 385.199 22V14.272H387.187ZM404.156 14.272V29H402.336V24.128H397.716H397.156L393.74 29H391.584L395.252 23.848C394.113 23.5307 393.236 22.9893 392.62 22.224C392.004 21.4587 391.696 20.488 391.696 19.312C391.696 17.6693 392.256 16.4187 393.376 15.56C394.496 14.7013 396.027 14.272 397.968 14.272H404.156ZM393.712 19.368C393.712 21.552 395.103 22.644 397.884 22.644H402.336V16.036H398.024C395.149 16.036 393.712 17.1467 393.712 19.368ZM183.419 44.384C185.417 44.8507 186.415 46.0547 186.415 47.996C186.415 49.284 185.939 50.2733 184.987 50.964C184.035 51.6547 182.617 52 180.731 52H174.039V37.272H180.535C182.215 37.272 183.531 37.5987 184.483 38.252C185.435 38.9053 185.911 39.8387 185.911 41.052C185.911 41.8547 185.687 42.5453 185.239 43.124C184.81 43.684 184.203 44.104 183.419 44.384ZM175.971 43.824H180.395C181.534 43.824 182.402 43.6093 182.999 43.18C183.615 42.7507 183.923 42.1253 183.923 41.304C183.923 40.4827 183.615 39.8667 182.999 39.456C182.402 39.0453 181.534 38.84 180.395 38.84H175.971V43.824ZM180.647 50.432C181.917 50.432 182.869 50.2267 183.503 49.816C184.138 49.4053 184.455 48.7613 184.455 47.884C184.455 47.0067 184.166 46.3627 183.587 45.952C183.009 45.5227 182.094 45.308 180.843 45.308H175.971V50.432H180.647ZM197.151 52.14C195.732 52.14 194.453 51.8227 193.315 51.188C192.176 50.5347 191.28 49.6387 190.627 48.5C189.973 47.3613 189.647 46.0733 189.647 44.636C189.647 43.1987 189.973 41.9107 190.627 40.772C191.28 39.6333 192.176 38.7467 193.315 38.112C194.453 37.4773 195.732 37.16 197.151 37.16C198.569 37.16 199.848 37.4773 200.987 38.112C202.125 38.7467 203.012 39.6333 203.647 40.772C204.3 41.9107 204.627 43.1987 204.627 44.636C204.627 46.0733 204.3 47.3613 203.647 48.5C203.012 49.6387 202.125 50.5347 200.987 51.188C199.848 51.8227 198.569 52.14 197.151 52.14ZM197.151 50.376C198.196 50.376 199.129 50.1427 199.951 49.676C200.791 49.1907 201.444 48.5093 201.911 47.632C202.377 46.7547 202.611 45.756 202.611 44.636C202.611 43.516 202.377 42.5173 201.911 41.64C201.444 40.7627 200.791 40.0907 199.951 39.624C199.129 39.1387 198.196 38.896 197.151 38.896C196.105 38.896 195.163 39.1387 194.323 39.624C193.501 40.0907 192.848 40.7627 192.363 41.64C191.896 42.5173 191.663 43.516 191.663 44.636C191.663 45.756 191.896 46.7547 192.363 47.632C192.848 48.5093 193.501 49.1907 194.323 49.676C195.163 50.1427 196.105 50.376 197.151 50.376ZM220.833 37.272V52H218.845V39.036H211.789L211.593 42.676C211.444 45.7373 211.089 48.0893 210.529 49.732C209.969 51.3747 208.971 52.196 207.533 52.196C207.141 52.196 206.665 52.1213 206.105 51.972L206.245 50.264C206.581 50.3387 206.815 50.376 206.945 50.376C207.711 50.376 208.289 50.0213 208.681 49.312C209.073 48.6027 209.335 47.7253 209.465 46.68C209.596 45.6347 209.708 44.2533 209.801 42.536L210.053 37.272H220.833ZM236.901 39.036H228.473V52H226.485V37.272H236.901V39.036ZM245.166 52.14C243.748 52.14 242.469 51.8227 241.33 51.188C240.192 50.5347 239.296 49.6387 238.642 48.5C237.989 47.3613 237.662 46.0733 237.662 44.636C237.662 43.1987 237.989 41.9107 238.642 40.772C239.296 39.6333 240.192 38.7467 241.33 38.112C242.469 37.4773 243.748 37.16 245.166 37.16C246.585 37.16 247.864 37.4773 249.002 38.112C250.141 38.7467 251.028 39.6333 251.662 40.772C252.316 41.9107 252.642 43.1987 252.642 44.636C252.642 46.0733 252.316 47.3613 251.662 48.5C251.028 49.6387 250.141 50.5347 249.002 51.188C247.864 51.8227 246.585 52.14 245.166 52.14ZM245.166 50.376C246.212 50.376 247.145 50.1427 247.966 49.676C248.806 49.1907 249.46 48.5093 249.926 47.632C250.393 46.7547 250.626 45.756 250.626 44.636C250.626 43.516 250.393 42.5173 249.926 41.64C249.46 40.7627 248.806 40.0907 247.966 39.624C247.145 39.1387 246.212 38.896 245.166 38.896C244.121 38.896 243.178 39.1387 242.338 39.624C241.517 40.0907 240.864 40.7627 240.378 41.64C239.912 42.5173 239.678 43.516 239.678 44.636C239.678 45.756 239.912 46.7547 240.378 47.632C240.864 48.5093 241.517 49.1907 242.338 49.676C243.178 50.1427 244.121 50.376 245.166 50.376ZM267.307 39.036H258.879V52H256.891V37.272H267.307V39.036ZM276.956 37.16C278.393 37.16 279.672 37.4773 280.792 38.112C281.912 38.7467 282.78 39.6333 283.396 40.772C284.031 41.9107 284.348 43.208 284.348 44.664C284.348 46.12 284.04 47.4173 283.424 48.556C282.808 49.676 281.949 50.5533 280.848 51.188C279.765 51.8227 278.524 52.14 277.124 52.14C275.892 52.14 274.791 51.8973 273.82 51.412C272.868 50.908 272.093 50.1893 271.496 49.256V57.432H269.508V44.692C269.508 43.2173 269.816 41.9107 270.432 40.772C271.067 39.6333 271.944 38.7467 273.064 38.112C274.203 37.4773 275.5 37.16 276.956 37.16ZM276.9 50.404C277.945 50.404 278.888 50.1613 279.728 49.676C280.568 49.1907 281.221 48.5093 281.688 47.632C282.155 46.7547 282.388 45.7653 282.388 44.664C282.388 43.5627 282.155 42.5733 281.688 41.696C281.221 40.8187 280.568 40.1373 279.728 39.652C278.888 39.148 277.945 38.896 276.9 38.896C275.855 38.896 274.912 39.1387 274.072 39.624C273.251 40.1093 272.607 40.7907 272.14 41.668C271.692 42.5267 271.468 43.516 271.468 44.636C271.468 45.756 271.692 46.7547 272.14 47.632C272.607 48.5093 273.251 49.1907 274.072 49.676C274.912 50.1613 275.855 50.404 276.9 50.404ZM302.021 37.272V52H300.117V49.088C299.52 50.0773 298.726 50.8333 297.737 51.356C296.766 51.8787 295.665 52.14 294.433 52.14C293.052 52.14 291.801 51.8227 290.681 51.188C289.561 50.5533 288.684 49.6667 288.049 48.528C287.414 47.3893 287.097 46.092 287.097 44.636C287.097 43.18 287.414 41.8827 288.049 40.744C288.684 39.6053 289.561 38.728 290.681 38.112C291.801 37.4773 293.052 37.16 294.433 37.16C295.628 37.16 296.701 37.412 297.653 37.916C298.624 38.4013 299.417 39.12 300.033 40.072V37.272H302.021ZM294.601 50.376C295.628 50.376 296.552 50.1427 297.373 49.676C298.213 49.1907 298.866 48.5093 299.333 47.632C299.818 46.7547 300.061 45.756 300.061 44.636C300.061 43.516 299.818 42.5173 299.333 41.64C298.866 40.7627 298.213 40.0907 297.373 39.624C296.552 39.1387 295.628 38.896 294.601 38.896C293.556 38.896 292.613 39.1387 291.773 39.624C290.952 40.0907 290.298 40.7627 289.813 41.64C289.346 42.5173 289.113 43.516 289.113 44.636C289.113 45.756 289.346 46.7547 289.813 47.632C290.298 48.5093 290.952 49.1907 291.773 49.676C292.613 50.1427 293.556 50.376 294.601 50.376ZM321.222 37.272V50.208C321.222 52.7093 320.606 54.5573 319.374 55.752C318.16 56.9653 316.322 57.572 313.858 57.572C312.495 57.572 311.198 57.3667 309.966 56.956C308.752 56.564 307.763 56.0133 306.998 55.304L308.006 53.792C308.715 54.4267 309.574 54.9213 310.582 55.276C311.608 55.6307 312.682 55.808 313.802 55.808C315.668 55.808 317.04 55.3693 317.918 54.492C318.795 53.6333 319.234 52.2893 319.234 50.46V48.584C318.618 49.5173 317.806 50.2267 316.798 50.712C315.808 51.1973 314.707 51.44 313.494 51.44C312.112 51.44 310.852 51.1413 309.714 50.544C308.594 49.928 307.707 49.0787 307.054 47.996C306.419 46.8947 306.102 45.6533 306.102 44.272C306.102 42.8907 306.419 41.6587 307.054 40.576C307.707 39.4933 308.594 38.6533 309.714 38.056C310.834 37.4587 312.094 37.16 313.494 37.16C314.744 37.16 315.874 37.412 316.882 37.916C317.89 38.42 318.702 39.148 319.318 40.1V37.272H321.222ZM313.69 49.676C314.754 49.676 315.715 49.452 316.574 49.004C317.432 48.5373 318.095 47.8933 318.562 47.072C319.047 46.2507 319.29 45.3173 319.29 44.272C319.29 43.2267 319.047 42.3027 318.562 41.5C318.095 40.6787 317.432 40.044 316.574 39.596C315.734 39.1293 314.772 38.896 313.69 38.896C312.626 38.896 311.664 39.12 310.806 39.568C309.966 40.016 309.303 40.6507 308.818 41.472C308.351 42.2933 308.118 43.2267 308.118 44.272C308.118 45.3173 308.351 46.2507 308.818 47.072C309.303 47.8933 309.966 48.5373 310.806 49.004C311.664 49.452 312.626 49.676 313.69 49.676ZM340.275 37.272V52H338.371V49.088C337.774 50.0773 336.98 50.8333 335.991 51.356C335.02 51.8787 333.919 52.14 332.687 52.14C331.306 52.14 330.055 51.8227 328.935 51.188C327.815 50.5533 326.938 49.6667 326.303 48.528C325.668 47.3893 325.351 46.092 325.351 44.636C325.351 43.18 325.668 41.8827 326.303 40.744C326.938 39.6053 327.815 38.728 328.935 38.112C330.055 37.4773 331.306 37.16 332.687 37.16C333.882 37.16 334.955 37.412 335.907 37.916C336.878 38.4013 337.671 39.12 338.287 40.072V37.272H340.275ZM332.855 50.376C333.882 50.376 334.806 50.1427 335.627 49.676C336.467 49.1907 337.12 48.5093 337.587 47.632C338.072 46.7547 338.315 45.756 338.315 44.636C338.315 43.516 338.072 42.5173 337.587 41.64C337.12 40.7627 336.467 40.0907 335.627 39.624C334.806 39.1387 333.882 38.896 332.855 38.896C331.81 38.896 330.867 39.1387 330.027 39.624C329.206 40.0907 328.552 40.7627 328.067 41.64C327.6 42.5173 327.367 43.516 327.367 44.636C327.367 45.756 327.6 46.7547 328.067 47.632C328.552 48.5093 329.206 49.1907 330.027 49.676C330.867 50.1427 331.81 50.376 332.855 50.376Z" fill="white"/>
</svg>
